<?xml version="1.0" encoding="UTF-8"?>
<svg version="1.1" viewBox="0 0 2048 1578" width="842" height="649" xmlns="http://www.w3.org/2000/svg">
<path transform="translate(0)" d="m0 0h2048v1578h-2048z" fill="#160200s"/>
<path transform="translate(329,622)" d="m0 0h19l-2 4-10 11-6 10-1 3 28 3 26 3 25 6 16 6 14 8 14 12 11 14 8 15 5 14 2 13v23l-3 14-6 16-8 13-9 11-2 4 8 18 1 3 11-13 8-7 12-6h11l8 4 7 8 3 7v8l-6 12-8 9-13 9-12 6-17 6-5 1h-15l-7-15-7-12-10-11-10-7-13-6-14-5-19-3h-31l-22 4-20 7-16 9-12 9-12 12-6 9 9-3 6-1h10l12 3 8 6 4 5 1 4v15l-4 8-8 6-10 3-15 1-18-2-15-4-16-7-12-9 1-6 8-11 8-16 7-18 6-22 4-29 2-20 1-18 1-45 2-18 7-21 9-16 9-11 9-9 13-9 15-8 13-4z" fill="#FCFCFC"/>
<path transform="translate(1920,731)" d="m0 0 20 1 12 3 17 8 11 8 12 12 9 14 5 11 3 15 1 6v18l-3 18-5 14-8 16-10 13-8 9-14 11-11 7-21 8-17 3h-20l-15-3-20-8-11-8-5-6-2-1-5 26-12 54-3 13-1 1h-41l1-10 13-61 11-55 12-59 8-39 7-34 1-1h40l1 1-1 12 9-5 16-8 12-3z" fill="#FDFDFD"/>
<path transform="translate(317,456)" d="m0 0h29l16 4 12 5 10 7 7 6 8 11 7 15 3 12v26l-3 12-7 16-9 11-10 9-15 8-15 4-32 1-15 2-11 4-14 7-11 8-10 9-12 13-3 1-5-42-4-19-7-20-11-21-10-13-9-8-16-11-4-4 9-2 24-5 23-8 19-9 27-16 15-7 17-5z" fill="#FDFDFD"/>
<path transform="translate(1455,665)" d="m0 0h45l1 2-4 16-5 27-1 5 17-9 17-10 18-10 20-11 9-4 4 1 18 12 7 5-1 3-20 8-20 9-17 8-19 10-29 16-10 7-2 2-8 42-1 4 5-1 21-9 29-13 27-12 17-8 3-1-2 4-15 11-27 18-18 10-16 8-13 6-14 5-9 35-1 7v14l4 8 6 4 5 2 10-1 7-1 1 5-4 22-4 12-4 3-4 1h-20l-14-3-16-8-8-9-5-10-2-8v-20l6-33 2-4-21 3h-15l-12-3-7-6-2-5v-9l4-9 8-11 10-10 14-11 15-11 20-13h3l4-18 11-60z" fill="#FCFCFC"/>
<path transform="translate(858,687)" d="m0 0h37l1 1 1 170 7 14 7 7 8 4 8 2h9l13-4 9-6 8-9 4-11 1-9-2-10-6-12-9-8-8-4-13-4-1-1v-40h11l15 4 18 8 11 8 10 10 9 14 5 12 3 21-2 18-3 12-8 16-7 10-12 12-11 7-11 5-13 3h-26l-16-4-15-8-10-8-10-9-9-12-6-12-2-7v-179z" fill="#FDFDFD"/>
<path transform="translate(707,767)" d="m0 0h16l16 3 15 6 12 8 11 10 9 13 5 10 4 13 2 23 3 10 6 10 9 7 11 4 8 1 1 1v42l-14-1-16-4-15-8-10-8-9-9-9-14-5-13-2-9-3-24-7-16-8-7-6-3-11-2h-9l-10 2-10 6-6 7-5 10-2 9v8l4 13 6 8 7 6 10 4 11 2 1 1v42l-19-2-13-4-14-7-11-9-10-11-8-16-5-12-3-14v-12l3-15 6-15 9-14 14-14 13-8 15-6z" fill="#FDFDFD"/>
<path transform="translate(1195,768)" d="m0 0h27l16 4 10 4 12 8 10 9 9 13 6 13 3 12 4 26 6 14 5 6 12 6 10 2 5 3v39h-16l-16-4-15-8-14-12-10-13-7-15-4-17-4-25-6-12-8-6-6-3-11-2h-8l-10 2-9 5-8 9-4 10-1 5v14l3 10 6 9 8 6 13 4 7 2v41h-13l-16-4-16-8-9-7-10-10-7-11-6-13-3-12v-28l4-16 8-16 8-10 8-8 13-8 12-5z" fill="#FDFDFD"/>
<path transform="translate(1691,737)" d="m0 0h10l7 2-2 14-6 28-2 1-14-2-12 1-14 3-12 7-8 8-7 11-7 15-6 21-7 37-6 36-3 8h-45l1-10 8-40 7-36 18-89 2-10 1-1h45l-2 20 8-8 11-8 11-5 7-2z" fill="#FDFDFD"/>
<path transform="translate(1044,687)" d="m0 0h16l13 1 1 1v164l-1 4 10 16 8 7 11 4 9 1v43l-18-2-13-4-13-7-9-7-7-6-9-12-7-16-3-8-1-70v-107l1-1z" fill="#FDFDFD"/>
<path transform="translate(551,687)" d="m0 0h19l8 1 1 1 1 166 8 16 4 5 8 5 10 3 8 1 1 2v40h-13l-17-4-16-8-10-8-8-8-8-13-7-15-2-6v-177z" fill="#FDFDFD"/>
<path transform="translate(1904,772)" d="m0 0h14l16 4 11 6 10 9 7 12 3 11v16l-4 13-7 14-12 13-10 7-11 5-14 3h-13l-14-3-11-6-5-4-6-8-6-12-2-8v-18l4-13 7-13 12-14 10-7 8-4z" fill="#0875BA"/>
<path transform="translate(1738,735)" d="m0 0h45l1 2-9 42-6 31-12 60v13l5 2 2 1 9 1-1 13-5 20-5 5-3 1h-14l-14-3-11-6-5-5-5-7-2-6v-20l7-39 14-62 6-30 2-12z" fill="#FDFDFD"/>
<path transform="translate(5)" d="m0 0h2043v4h-2043z" fill="#FDFDFD"/>
<path transform="translate(6,1570)" d="m0 0 1245 5 134 1 27 1v1h-1407v-7z" fill="#FDFDFD"/>
<path transform="translate(1731,593)" d="m0 0h9l6 3 2 4-4 8-7 7-16 11-23 14-32 17-28 14-19 10-5 2-16-9-22-15-2-4 13-8h8l14 8h5l16-12 2-3-6-2-22-11-11-5 1-4 11-11 3-2 15 2 32 6 16 1 12-4 17-8 16-6z" fill="#FDFDFD"/>
<path transform="translate(0)" d="m0 0h5v1578h-5z" fill="#272923"/>
<path transform="translate(1240,517)" d="m0 0h13l11 3 9 7 6 9 1 3v12l-4 8 2 4 28 36 8 11 11 14 6 9-1 2-12-11-22-18-17-14-13-11-10-8-4 1h-11l-12-4-8-6-6-8v-3h4l-5-3-4-1h-15l-9 4-5 4-5 10v9l5 8-1 5-12 19 3-1 20-14h18l9-3 6-4 6-9 1-4 5 1 1 2-5 10-8 8-8 4-4 1h-19l-19 14-13 9-11 9-2 1 1-4 17-29 7-11v-4l-4-10v-7l6-12 9-8 10-4 11-1 10 1-1-5 5-10 8-7 7-3z" fill="#FDFDFD"/>
<path transform="translate(1297,635)" d="m0 0h18l10 4 10 9 5 10 1 5v10l-3 10-6 10-1 5 5 5 10 5 12 9 9 9 8 13 2 5v4h-8l-7-13-8-10-9-7-12-6-14-4-5-1h-15l-15 4-10 4-11 7-8 8-8 12-3 6h-8l1-5 7-14 11-12 9-7 16-9 2-3-1-5-8-16v-17l4-10 7-8 10-6z" fill="#FDFDFD"/>
<path transform="translate(1171,634)" d="m0 0 12 1 10 5 6 5 6 9 3 9v9l-3 10-8 14 3 5 17 10 9 7 10 11 3 6h-2l-2 7-3-1-7-11-8-8-13-8-15-5-8-2h-15l-19 5-12 6-11 9-6 8-8 13h-7l1-7 8-14 7-8h2v-2l14-10 13-7 1-5-7-11-3-9v-14l4-10 9-10 12-6z" fill="#FDFDFD"/>
<path transform="translate(327,697)" d="m0 0h2l-1 9-3 14 20-8 16-6 3 1-12 9-8 8-6 10-3 12v13l4 13 5 9 9 10 11 7 10 4 13 1 10-2 3-2 10-1h10l7 12 4 5 8 5-2 1-12-4-8-5-12 6-21 3-18-2-11-4-13-7-11-9-7-8-8-13-5-15-2-8v-18l6-21 6-11z" fill="#0875BA"/>
<path transform="translate(1240,522)" d="m0 0h12l11 4 8 7 3 5v13l-3 6-1 4 11 13 11 14 9 11 8 10h-3l-11-10-11-9-13-12-9-7-4-3-13 1-8-1-6-12-5-5-8-5-2-2 7-12 8-7z" fill="#0875BA"/>
<path transform="translate(1766,661)" d="m0 0h12l8 3 6 5 4 8 1 3v11l-4 11-6 7-8 4-4 1h-15l-9-4-6-7-2-5v-15l5-10 8-8z" fill="#FDFDFD"/>
<path transform="translate(1304,642)" d="m0 0 9 1 10 5 7 8 3 9v8l-3 8-7 8-11 6-8 1-14-7-6-7-3-6v-14l5-10 7-6z" fill="#0875BA"/>
<path transform="translate(1170,642)" d="m0 0 10 1 10 5 5 6 4 9v12l-4 8-5 5-9 6-6 2-7-1-10-5-8-9-3-7v-10l4-9 7-8 8-4z" fill="#0875BA"/>
<path transform="translate(394,681)" d="m0 0 12 2 12 5 9 6 9 9 8 15 3 9 1 5v10l-3 12-8 16-7 8-7 6-8 5-6 1 5-4 7-6 8-14 4-13v-7l-3-10-6-12-7-8-10-6-12-4h-16l2-2 23-11 2-2-11-7z" fill="#0875BA"/>
<path transform="translate(1342,885)" d="m0 0h40l3 3v39l-1 1h-42z" fill="#FDFDFD"/>
<path transform="translate(1429,782)" d="m0 0h2l-2 16-5 17-5 2h-26l1-6 7-8 7-6 18-13z" fill="#0875BA"/>
<path transform="translate(345,680)" d="m0 0h7l6 4 3 5v7l-4 6-5 3h-8l-6-4-3-7 1-7 5-5z" fill="#0875BA"/>
<path transform="translate(326,967)" d="m0 0h11l11 4 5 5 4 6v17l-4 9-7 9-9 6-10 2h-11l-8-3-6-5-4-8v-16l4-10 8-9 8-5zm-2 2-10 5-7 6-6 10-1 3v15l3 6 7 6 8 3h11l9-3 9-7 6-9 2-5v-16l-6-8-12-6z" fill="#FDFDFD"/>
<path transform="translate(1507,968)" d="m0 0h2l14 25 10 17 4 7v2h2l5-27 3-15 3-9h2l-4 20-3 13-4 20-2 4-3-4-16-28-11-19-2-1-1 11-7 35-3 6-1-4 5-22 5-25z" fill="#FDFDFD"/>
<path transform="translate(418,968)" d="m0 0h2l14 25 15 25h1l5-26 3-19 2-4 2 1-5 26-4 20-2 8h-2l-9-15-13-23-7-13-4 12-5 28-3 11h-2l2-13 6-27 2-12z" fill="#FDFDFD"/>
<path transform="translate(1325,967)" d="m0 0h13l10 3 4 4v2l-5-2-9-4h-15l-11 7-7 8-3 7-1 5v8l3 8 5 5 9 4h11l8-3 4-4 3-13 2-5 1 2-2 15-7 8-8 3h-14l-9-4-7-8-2-5v-14l4-10 7-9 7-5z" fill="#FDFDFD"/>
<path transform="translate(1067,967)" d="m0 0h13l9 3 4 4v2l-5-2-7-4h-16l-12 7-7 10-4 10v9l5 9 7 5 6 2h11l7-3 4-4 6-18h2l-2 12-4 9-8 6-5 1h-12l-8-3-8-7-4-9v-9l4-11 8-11 9-6z" fill="#FDFDFD"/>
<path transform="translate(946,968)" d="m0 0h2l8 13 10 18 10 17v2h3l5-29 5-20 2 1-7 33-4 22h-2l-15-26-10-18-4-7-2-1-1 8-6 31-2 11-3 1 1-7 6-32z" fill="#FDFDFD"/>
<path transform="translate(1231,968)" d="m0 0h2l5 16 6 22 4 15v3h-2l-4-16-37 1-2 5-7 10-2-1 10-16 8-11 16-24zm0 4-7 9-13 20-2 5h32l-6-25-3-9z" fill="#FDFDFD"/>
<path transform="translate(229,967)" d="m0 0h12l9 3 4 4v2l-12-6h-14l-12 6-7 8-4 9-1 11 3 8 5 6 9 4h12l9-4 5-2-2 4-10 5h-16l-10-5-6-8-2-4v-13l4-10 6-8 7-6z" fill="#FDFDFD"/>
<path transform="translate(530,967)" d="m0 0h13l9 4 1 3-4-1-6-3-8-1-7 2-6 4-3 5v6l5 6 16 5 6 4 3 3v8l-4 7-7 5-13 1-10-2-6-4v-3l10 5 4 1h10l10-5 3-6-1-7-6-4-16-5-5-4-3-5 1-7 6-8z" fill="#FDFDFD"/>
<path transform="translate(1628,967)" d="m0 0h13l9 3 3 3v2l-6-2-5-3h-16l-13 8-6 9-3 7v14l4 7 7 5 6 2h12l7-3 3-2 3 1-6 5-7 2h-11l-8-2-6-4-6-7-2-9 1-10 6-12 5-6 7-5z" fill="#FDFDFD"/>
<path transform="translate(612,969)" d="m0 0h1l-1 12-4 14-1 6v11l4 6 8 4h10l8-4 5-5 4-8 4-23 3-12 2-1-1 10-4 20-2 9-5 8-8 7-5 2h-12l-8-4-5-6-1-4 1-14 4-15 2-11z" fill="#FDFDFD"/>
<path transform="translate(377,681)" d="m0 0h6l5 4 2 3-1 6-5 5h-8l-5-5-1-4 2-5z" fill="#0875BA"/>
<path transform="translate(1414,967)" d="m0 0h35v2h-34l-2 11-3 14 29 1v2h-14l-16-1-1 10-4 16-1 2-2-1 6-28 5-24z" fill="#FDFDFD"/>
<path transform="translate(1745,967)" d="m0 0 1 3-12 14-11 14-6 7-2 13-3 7h-1v-6l2-4v-13l-14-32 1-2 5 8 10 24v2l5-5 11-13 11-14z" fill="#FDFDFD"/>
<path transform="translate(788,967)" d="m0 0h43v2h-20l-4 19-7 34-1 2h-2l5-25 5-27 1-3h-19z" fill="#FDFDFD"/>
<path transform="translate(717,968)" d="m0 0h2l-2 10-5 26-3 15-1 2h-2l1-9 5-24 4-17z" fill="#FDFDFD"/>
<path transform="translate(406,744)" d="m0 0h5l3 4-1 6-4 2-4-1-3-4 1-4z" fill="#0875BA"/>
<path transform="translate(352,744)" d="m0 0 6 1 2 2v6l-5 3-5-2-2-3 1-5z" fill="#0875BA"/>
<path transform="translate(882,969)" d="m0 0h2l-2 17-5 21-3 17h-3l7-35z" fill="#FDFDFD"/>
<path transform="translate(379,744)" d="m0 0h5l3 4v5l-4 3-5-1-2-2v-6z" fill="#0875BA"/>
<path transform="translate(1189,566)" d="m0 0h5l2 2v5l-5 2-4-3 1-5z" fill="#FDFDFD"/>
<path transform="translate(1215,566)" d="m0 0h5l2 5-3 4-4-1-1-1v-6z" fill="#FDFDFD"/>
<path transform="translate(1256,540)" d="m0 0 5 1 1 5-3 3-5-2v-5z" fill="#FDFDFD"/>
<path transform="translate(1203,566)" d="m0 0 5 1 1 1v5l-1 1h-6l-1-1v-5z" fill="#FDFDFD"/>
<path transform="translate(1243,540)" d="m0 0 5 1 1 1v5l-5 2-3-3 1-5z" fill="#FDFDFD"/>
<path transform="translate(1231,540)" d="m0 0 5 1v6l-4 2-4-3 1-4z" fill="#FDFDFD"/>
<path transform="translate(2047,1561)" d="m0 0h1v17h-5z" fill="#FDFDFD"/>
<path transform="translate(1220,554)" d="m0 0 5 2 3 3v2l4 2 2 3-4-2-10-9z" fill="#0875BA"/>
</svg>
